<?xml version="1.0" encoding="UTF-8"?><svg id="_レイヤー_3" xmlns="http://www.w3.org/2000/svg" xmlns:xlink="http://www.w3.org/1999/xlink" viewBox="0 0 400 400"><defs><style>.cls-1{clip-path:url(#clippath);}.cls-2{fill:#fff;}.cls-3{fill:#cfc6c2;}.cls-4{opacity:.75;}</style><clipPath id="clippath"><path class="cls-3" d="M504.9,184.64c-7.26-19.99-21.73-35.44-31.3-54.13,26.32-1.21,52.8,17.32,57.92,39.35,3.62,15.56,.27,30.03-6.69,43.73-8.38,16.49-19.98,30.7-32.9,43.96-36.12,37.06-79.85,62.93-125.22,86.61-39.61,20.68-81.09,36.83-123.66,49.76-46.2,14.02-93.42,24.09-142.04,24.08-25.37,0-50.77-2.17-73.7-14.48-21.55-11.58-33.73-34.3-26.62-58.54,3.63-12.39,9.29-24.19,15.4-36.13,6.28,22.09,10.96,44.13,22.38,64.1,7.46,6.4,17.12,6.86,26.23,8.41,27.25,4.65,54.48,2.61,81.55-1.73,47.76-7.66,93.99-21.09,138.88-38.99,40.24-16.05,79.39-34.43,115.86-58.01,15.06-9.74,29.97-19.82,44.14-30.79,20.08-15.54,37.58-33.86,52.7-54.3,2.86-3.86,4.68-8.49,7.04-12.88Zm-189.14,199.7c-92.27,37.53-174.75,48.15-230.22,50.85l-1.38,.55c64.17,74.32,164.8,104.6,255.12,77.04,103.37-31.54,174.68-133.17,170.13-246.86-41.19,35.49-105.5,82.57-193.65,118.42Zm-42.66-53.23c107.92-40.55,180.63-101.45,217.38-139.27C435.9,90.91,325.2,38.82,226.35,61.25,104.33,88.94,17.64,226.26,52.9,368.52c49.77,1.09,129.72-3.41,220.19-37.41Z"/></clipPath></defs><g><path class="cls-3" d="M504.9,184.64c-7.26-19.99-21.73-35.44-31.3-54.13,26.32-1.21,52.8,17.32,57.92,39.35,3.62,15.56,.27,30.03-6.69,43.73-8.38,16.49-19.98,30.7-32.9,43.96-36.12,37.06-79.85,62.93-125.22,86.61-39.61,20.68-81.09,36.83-123.66,49.76-46.2,14.02-93.42,24.09-142.04,24.08-25.37,0-50.77-2.17-73.7-14.48-21.55-11.58-33.73-34.3-26.62-58.54,3.63-12.39,9.29-24.19,15.4-36.13,6.28,22.09,10.96,44.13,22.38,64.1,7.46,6.4,17.12,6.86,26.23,8.41,27.25,4.65,54.48,2.61,81.55-1.73,47.76-7.66,93.99-21.09,138.88-38.99,40.24-16.05,79.39-34.43,115.86-58.01,15.06-9.74,29.97-19.82,44.14-30.79,20.08-15.54,37.58-33.86,52.7-54.3,2.86-3.86,4.68-8.49,7.04-12.88Zm-189.14,199.7c-92.27,37.53-174.75,48.15-230.22,50.85l-1.38,.55c64.17,74.32,164.8,104.6,255.12,77.04,103.37-31.54,174.68-133.17,170.13-246.86-41.19,35.49-105.5,82.57-193.65,118.42Zm-42.66-53.23c107.92-40.55,180.63-101.45,217.38-139.27C435.9,90.91,325.2,38.82,226.35,61.25,104.33,88.94,17.64,226.26,52.9,368.52c49.77,1.09,129.72-3.41,220.19-37.41Z"/><g class="cls-1"><g class="cls-4"><rect class="cls-3" x="-116.8" y="-31.09" width="861.99" height="818.58" transform="translate(-89.96 658.24) rotate(-85)"/></g></g></g><g><path class="cls-2" d="M186.16,320.89c2.4-17.31,7.6-32.94,20.49-44.92,17.88-16.61,43.91-19.39,64.91-4.82,12.32,8.54,22.85,20.14,32.71,31.62,7.75,9.02,6.17,15.25-4.08,21.53-29.82,18.29-62.02,30.91-96.25,38.1-8.88,1.86-13.05-.78-14.59-9.89-1.77-10.42-2.18-21.07-3.19-31.62Z"/><path class="cls-2" d="M273.89,215.9c6.74,2.76,13.55,5.37,20.17,8.4,1.33,.61,1.91,2.84,2.84,4.33-1.68,.3-3.47,1.11-5.04,.8-6.11-1.22-12.12-3.76-18.23-3.99-6.94-.26-14.02,1.04-20.9,2.37-6.69,1.3-9.28-.14-7.98-6.47,3.17-15.4,11.33-27.03,26.66-32.54,1.53-.55,3.46,0,5.2,.03-.84,1.72-1.28,3.86-2.59,5.1-5.49,5.2-11.28,10.07-16.82,15.21-.77,.71-.77,2.25-1.12,3.41,.92-.52,1.94-.93,2.75-1.59,7.81-6.41,16.91-7.05,26.31-5.6,1.67,.26,3.07,2.27,4.59,3.48-1.55,.88-3.01,2.26-4.66,2.54-3.74,.64-7.64,.41-11.34,1.16-2.46,.5-4.7,2.09-7.04,3.19,2.2,.58,4.41,1.16,6.61,1.74,.19-.52,.38-1.04,.58-1.56Z"/><path class="cls-2" d="M152.67,248.2c-2.54,.34-5.48,.94-8.43,1.05-1.41,.05-2.85-.83-4.28-1.29,.81-1.53,1.37-4.14,2.46-4.39,4.7-1.06,9.85-2.72,14.29-1.73,6.77,1.51,13.33,4.59,19.54,7.84,5.17,2.71,5.56,6.94-.08,9.78-10.97,5.52-17.98,13.89-20.74,25.93-.32,1.4-2.3,2.43-3.5,3.63-.58-1.68-2.07-3.68-1.6-4.99,2.43-6.81,5.29-13.47,8.14-20.12,.59-1.38,1.75-2.52,2.65-3.77-1.71,.44-3.71,.46-5.06,1.41-2.42,1.7-4.37,4.05-6.67,5.95-1.32,1.09-2.94,1.82-4.43,2.72-.16-2-1.23-4.7-.32-5.87,2.93-3.78,6.5-7.1,10-10.4,1.62-1.53,3.65-2.63,5.5-3.92-2.31-.57-4.62-1.14-7.46-1.84Z"/></g></svg>